<svg height="100%" width="100%" id="svg" viewBox="0 0 1440 500" xmlns="http://www.w3.org/2000/svg" class="transition duration-300 ease-in-out delay-150"><defs><linearGradient id="gradient"><stop offset="5%" stop-color="#002bdc88"></stop><stop offset="95%" stop-color="#32ded488"></stop></linearGradient></defs><path d="M 0,500 C 0,500 0,166 0,166 C 76.82142857142858,136.78571428571428 153.64285714285717,107.57142857142857 295,109 C 436.35714285714283,110.42857142857143 642.2499999999999,142.49999999999997 767,169 C 891.7500000000001,195.50000000000003 935.3571428571429,216.42857142857144 1034,215 C 1132.642857142857,213.57142857142856 1286.3214285714284,189.78571428571428 1440,166 C 1440,166 1440,500 1440,500 Z" stroke="none" stroke-width="0" fill="url(#gradient)" class="transition-all duration-300 ease-in-out delay-150" transform="rotate(-180 720 250)"></path><defs><linearGradient id="gradient"><stop offset="5%" stop-color="#002bdcff"></stop><stop offset="95%" stop-color="#32ded4ff"></stop></linearGradient></defs><path d="M 0,500 C 0,500 0,333 0,333 C 129.85714285714286,302.17857142857144 259.7142857142857,271.35714285714283 376,274 C 492.2857142857143,276.64285714285717 595,312.75 719,341 C 843,369.25 988.2857142857142,389.64285714285717 1112,387 C 1235.7142857142858,384.35714285714283 1337.857142857143,358.67857142857144 1440,333 C 1440,333 1440,500 1440,500 Z" stroke="none" stroke-width="0" fill="url(#gradient)" class="transition-all duration-300 ease-in-out delay-150" transform="rotate(-180 720 250)"></path></svg>